<svg xmlns="http://www.w3.org/2000/svg" viewBox="51 0 410 512"><path fill="#01A2DD" d="M442.4 390.2c-35.1 61.9-101.1 100.4-172.2 100.4-109 0-197.8-88.7-197.8-197.8 0-107.1 85.6-194.6 191.9-197.7l-66 115.9 18.6 10.6 80.5-141.1L156.3 0l-10.6 18.6 99.2 56.6C135.9 87.8 51 180.6 51 292.8 51 413.7 149.3 512 270.2 512c78.8 0 151.9-42.6 190.8-111.2l-18.6-10.6zM264.1 227.1c-12.2 0-32.8.8-51.1 29.1l19.9 11.5c19.1-28.1 42.7-16.7 46.8-12.2 12.2 13.2 3.9 26.1.4 32.3-4.6 8.3-65.5 68.2-65.5 68.2v20.9h100v-23.6h-66.3s49.5-50.2 55.8-61.3c5.5-9.6 13.7-34.5-7.9-53.2-9.1-8-19.9-11.7-32.1-11.7z"/><g fill="#01A2DD"><path d="M332 283.7l3.9-4.8c4.4-5.7 6.9-14.2 7.5-25.6l1-26.4H387v56.8h8.5v28.6h-11.3V293h-46.1v19.4h-11.3l.1-28.6h5.1zm13.4 0h30.3v-46.4h-20.3l-.7 15.7c-.7 13.2-3.8 23.5-9.3 30.7zM461 293h-11.3v-28.2h-30.3V293H408v-66h11.4v28.6h30.3V227H461v66z"/></g></svg>