<svg xmlns="http://www.w3.org/2000/svg" viewBox="0 0 45.877 45.878"><path d="M17.306 27.859v4.52a2.68 2.68 0 0 0 2.679 2.68h5.909a2.68 2.68 0 0 0 2.679-2.68v-4.521c-1.654 1.227-3.564 1.965-5.635 1.965-2.07-.001-3.978-.738-5.632-1.964zM31.825 27.395l.008 7.664c.694 0 1.258.562 1.258 1.258v9.562h4.34c1.224 0 2.217-1.017 2.217-2.242v-6.221a10.333 10.333 0 0 0-7.823-10.021zM6.231 37.415v6.221c0 1.226.993 2.242 2.217 2.242h4.339v-9.556c0-.698.565-1.264 1.264-1.264l.001-7.664a10.33 10.33 0 0 0-7.821 10.021z"/><path d="M34.604 17.203c.175-2.131-.508-3.036-1.398-3.41-.013-.349.135-1.787.135-2.184 0-4.843-4.514-9.472-8.688-10.482a.545.545 0 0 0 .04-.204c0-.51-.74-.923-1.657-.923-.916 0-1.658.414-1.658.923 0 .081.019.159.053.233-3.917 1.068-8.698 5.655-8.698 10.452 0 .293.018.584.044.87-.04.437-.068.895-.086 1.374-.824.408-1.433 1.326-1.267 3.351.177 2.127 1.22 3.121 2.373 3.412 1.67 4.226 5.049 7.665 9.153 7.665 4.092 0 7.467-3.422 9.139-7.632 1.21-.245 2.331-1.23 2.515-3.445zm-11.655 9.022c-4.555 0-8.223-6.199-8.223-11.331 0-.335.007-.657.018-.969l1.33 1.307a1.614 1.614 0 0 0 2.139.11c.995-.792 2.782-1.327 4.822-1.327s3.827.535 4.822 1.327a1.616 1.616 0 0 0 2.138-.109l1.166-1.144c.006.261.01.529.01.805-.001 5.132-3.669 11.331-8.222 11.331z"/></svg>